<svg width="84" height="84" viewBox="0 0 84 84" fill="none" xmlns="http://www.w3.org/2000/svg">
<g clip-path="url(#clip0_2014_68)">
<path d="M56.168 38.9236C56.168 37.1838 57.5784 35.7734 59.3182 35.7734V35.7734C61.058 35.7734 62.4684 37.1838 62.4684 38.9237V44.6222C62.4684 46.362 61.058 47.7724 59.3182 47.7724V47.7724C57.5784 47.7724 56.168 46.362 56.168 44.6222V38.9236Z" fill="white"/>
<path d="M27.832 38.9236C27.832 37.1838 26.4216 35.7734 24.6818 35.7734V35.7734C22.942 35.7734 21.5316 37.1838 21.5316 38.9237V44.6222C21.5316 46.362 22.942 47.7724 24.6818 47.7724V47.7724C26.4216 47.7724 27.832 46.362 27.832 44.6222V38.9236Z" fill="white"/>
<path d="M68.2773 45.462C68.2773 44.1239 69.3621 43.0391 70.7003 43.0391V43.0391C72.0385 43.0391 73.1233 44.1239 73.1233 45.462V49.8451C73.1233 51.1833 72.0385 52.2681 70.7003 52.2681V52.2681C69.3621 52.2681 68.2773 51.1833 68.2773 49.8451V45.462Z" fill="white"/>
<path d="M15.7227 45.462C15.7227 44.1239 14.6379 43.0391 13.2997 43.0391V43.0391C11.9615 43.0391 10.8767 44.1239 10.8767 45.462V49.8451C10.8767 51.1833 11.9615 52.2681 13.2997 52.2681V52.2681C14.6379 52.2681 15.7227 51.1833 15.7227 49.8451V45.462Z" fill="white"/>
<path fill-rule="evenodd" clip-rule="evenodd" d="M45.0051 73.6337L45.0157 73.5447C45.1407 72.2613 45.2762 70.7196 45.4118 68.9703L45.4647 68.2629L45.6151 66.1494C45.8734 62.3077 46.1064 57.7629 46.2144 52.9132H56.6022L82.8125 58.7837V61.0413H84V54.5693L47.4194 38.4614V12.1161C46.9175 8.10078 45.1322 0.0404712 42 -0.078125C38.8678 0.0404712 37.0825 8.10078 36.5806 12.1161V38.4614L3.20375e-06 54.5693V61.0413H1.2806V58.7837L27.3978 52.9132H37.7856C37.8724 56.8735 38.044 60.6304 38.2452 63.9681C38.4718 67.7335 38.7365 70.961 38.9652 73.3372C39.088 74.6248 39.2003 75.6583 39.2892 76.3995L26.6439 80.4614V83.3204L40.3439 81.5161C40.5451 82.3674 41.1571 84.0744 42 84.0744C42.8429 84.0744 43.4549 82.3674 43.6561 81.5161L57.3561 83.3204V80.4614L44.7108 76.3995L44.8548 75.1246L44.8611 75.0568L44.9226 74.4681L44.9268 74.4215L45.0051 73.6337Z" fill="white"/>
</g>
<defs>
<clipPath id="clip0_2014_68">
<rect width="84" height="84" fill="white"/>
</clipPath>
</defs>
</svg>
